<svg viewBox="0 0 1050 390" version="1.1" xmlns="http://www.w3.org/2000/svg"><path fill="#000000"  stroke="none" opacity="1" d="M 534.5 9 L 535.5 10 L 574.5 11 L 575.5 12 L 596.5 14 L 628.5 23 L 634.5 26 L 637.5 26 L 641.5 29 L 660.5 35 L 685.5 48 L 731 88.5 L 740 103.5 L 749 114.5 L 749 117 Q 751.7 115.9 751 118.5 L 766 142.5 L 765 145.5 L 770 154.5 L 770 158.5 L 774 168.5 L 773 173.5 L 776 187.5 L 776 198.5 L 775 202.5 L 776 203.5 L 776 211.5 L 775 214.5 Q 772.4 220.4 774 230.5 L 772 236.5 L 779 245 L 782 246.5 Q 781.3 248.8 783.5 248 L 787.5 252 L 796.5 258 L 802.5 260 L 805.5 263 L 815.5 268 L 818.5 268 L 839.5 279 L 845.5 279 L 851.5 281 L 858.5 285 L 872.5 289 L 877.5 292 L 880.5 292 L 886.5 296 L 895.5 297 L 921.5 308 L 975.5 339 L 979.5 339 L 986.5 343 L 1000.5 346 L 1008.5 350 L 1018.5 351 L 1021.5 353 L 1023.5 353 L 1036.5 354 L 1038.5 352 L 1041.5 353 L 1045 354.5 Q 1045.8 360.3 1041.5 361 L 1037.5 361 L 1025.5 367 L 1010.5 369 L 1002.5 372 L 996.5 372 L 988.5 374 L 979.5 374 L 971.5 376 L 962.5 376 L 960.5 375 L 951.5 377 L 889.5 377 L 888.5 376 L 873.5 376 L 872.5 375 L 860.5 374 L 856.5 375 L 851.5 373 L 837.5 373 L 829.5 371 L 773.5 370 L 770.5 369 L 765.5 370 L 764.5 369 L 751.5 369 L 745.5 371 L 738.5 369 L 737.5 370 L 703.5 370 L 702.5 371 L 680.5 373 L 678.5 372 L 665.5 375 L 651.5 375 L 636.5 380 L 634.5 379 L 618.5 383 L 607.5 383 L 606.5 384 L 594.5 385 L 592.5 384 L 591.5 385 L 545.5 385 L 544.5 384 L 526.5 383 L 525.5 382 L 523.5 382 L 506.5 378 L 492.5 377 L 488.5 375 L 482.5 375 L 477.5 373 L 467.5 372 L 457.5 368 L 448.5 367 L 435.5 363 L 427.5 363 L 422.5 361 L 414.5 361 L 413.5 360 L 399.5 359 L 391.5 357 L 383.5 357 L 375.5 355 L 373.5 355 L 344.5 351 L 342.5 352 L 337.5 351 Q 336 353.5 330.5 352 L 325.5 351 L 320.5 352 L 311.5 350 Q 300.8 351.8 294.5 349 L 293.5 350 L 272.5 350 Q 271.3 352.3 266.5 351 L 264.5 350 L 263.5 351 L 255.5 351 L 244.5 353 Q 242.7 350.3 236.5 352 L 234.5 352 L 221.5 352 L 219.5 351 L 218.5 352 L 204.5 352 L 202.5 353 L 201.5 352 L 156.5 352 L 153.5 351 L 152.5 352 L 128.5 352 L 124.5 353 L 122.5 352 L 117.5 353 L 116.5 352 L 102.5 352 L 96.5 356 L 90.5 357 L 85.5 360 L 71.5 361 L 57.5 356 L 44 345.5 Q 44.8 343.3 42.5 344 L 40 339.5 L 39 326.5 L 41 317.5 L 51 302.5 L 51 297.5 L 48 293.5 L 47 286.5 L 42 278.5 L 42 275.5 L 38 268.5 L 36 259.5 L 29 247.5 L 24 230.5 L 18.5 219 L 10 213.5 L 9 205.5 L 13.5 200 L 19.5 199 L 27 203.5 L 29 210.5 L 25 216.5 L 25 220.5 L 30 227.5 L 30 232.5 Q 33.7 236.3 34 243.5 L 43 261.5 L 61 289.5 L 65.5 294 Q 69.6 290.1 78.5 291 L 80 289.5 L 76 277.5 L 68 262.5 L 64 251.5 L 60 232.5 L 56 224.5 L 56 220.5 L 53.5 218 L 49 214.5 L 48 205.5 L 51.5 201 Q 54.2 198.2 60.5 199 L 66 203.5 L 67 209.5 L 63 217.5 L 63 220.5 L 65 223.5 L 66 232.5 L 69 236.5 Q 68.2 243.2 72 245.5 L 72 249.5 L 85 274.5 L 88 277.5 L 90 283.5 L 95.5 289 L 107.5 289 L 112.5 291 L 124.5 291 L 125.5 292 L 152.5 292 L 154.5 292 L 163.5 290 L 177.5 289 L 180.5 287 L 186.5 287 L 242.5 265 L 264.5 251 L 282.5 242 L 317 214.5 L 298 189.5 L 297 179.5 L 299 172 L 308.5 167 L 321.5 166 L 323.5 166 L 331.5 165 L 344 153.5 L 360 123.5 L 366 116.5 L 373 103.5 L 389.5 83 Q 391.8 83.8 391 81.5 L 397.5 74 L 400 72.5 L 407.5 63 L 410 61.5 L 412.5 58 L 422.5 49 L 427.5 47 L 437.5 39 L 462.5 26 L 489.5 16 L 503.5 15 L 523.5 10 L 533.5 10 L 534.5 9 Z M 515 29 L 512 34 L 511 53 L 508 61 L 508 71 L 510 78 L 510 84 L 508 85 L 506 84 L 506 76 L 504 68 L 504 66 L 508 48 L 508 32 L 507 30 L 502 32 L 502 34 L 500 51 L 500 53 Q 499 58 501 60 L 500 62 L 497 62 L 497 54 L 497 52 L 497 43 L 498 42 Q 499 36 497 34 L 494 35 L 491 38 L 488 50 L 489 55 L 489 69 L 488 69 L 485 65 L 485 45 L 479 52 L 476 67 L 477 70 L 476 75 L 478 82 L 477 86 L 489 132 L 496 146 Q 501 148 502 154 Q 501 156 505 155 L 511 148 Q 510 145 513 146 L 516 141 L 521 140 L 531 133 L 532 130 L 547 126 L 547 122 L 544 115 L 543 98 L 542 97 L 543 95 L 541 90 L 542 85 L 542 68 L 543 67 L 545 49 L 548 40 Q 546 36 541 37 L 539 45 Q 538 49 540 51 L 538 55 L 538 64 L 539 65 L 537 90 L 537 92 L 536 96 L 536 103 L 538 106 L 539 115 L 541 119 L 540 122 L 537 120 L 537 115 L 532 102 L 532 92 L 534 84 L 533 82 L 535 68 L 535 66 L 534 63 L 534 57 L 536 52 L 536 44 L 538 35 L 533 31 L 531 34 L 531 36 Q 529 37 530 43 L 530 45 L 528 57 L 525 58 L 524 56 L 526 49 L 527 36 L 527 34 L 528 32 L 521 29 L 521 45 L 519 47 L 520 49 L 518 56 L 518 66 L 517 67 L 519 77 Q 521 82 518 84 Q 521 86 520 93 L 517 94 L 515 87 Q 514 82 516 81 L 514 74 L 514 67 L 514 65 L 514 55 L 516 51 Q 514 44 517 43 L 517 34 L 516 33 L 517 31 Q 518 28 515 29 Z M 576 29 L 571 34 L 568 41 L 565 43 Q 563 36 567 35 Q 566 32 569 33 L 569 30 L 565 31 L 557 36 L 551 49 L 551 54 L 548 66 Q 547 70 549 72 L 547 81 Q 546 89 549 94 L 549 107 Q 552 108 550 114 L 552 118 L 552 123 L 554 124 L 586 124 L 592 126 L 593 125 L 595 104 L 598 97 L 602 80 L 609 66 L 624 49 L 621 46 L 619 50 L 617 51 L 614 57 L 610 58 L 605 66 L 602 67 L 592 90 Q 593 96 590 98 L 589 121 L 588 122 L 585 121 L 586 120 L 586 104 L 589 88 Q 592 86 591 82 L 594 79 L 594 76 L 597 73 L 602 62 L 606 58 L 606 56 L 611 53 L 612 51 Q 611 48 614 49 Q 617 47 617 43 Q 617 38 612 39 L 606 46 L 603 48 L 599 52 L 585 81 L 582 80 L 588 69 L 590 62 L 593 59 L 594 54 L 604 43 L 607 36 L 605 35 Q 601 34 602 37 L 600 37 L 597 41 L 592 45 L 586 54 L 585 59 L 581 64 Q 582 66 579 65 L 579 62 Q 583 57 584 50 L 588 44 L 593 41 L 598 35 Q 601 36 599 32 L 590 30 L 587 35 L 585 36 L 579 43 L 579 46 L 575 54 L 571 55 L 572 49 Q 577 45 578 38 L 585 31 L 585 29 L 576 29 Z M 635 50 L 627 55 Q 614 65 608 81 Q 608 88 604 93 L 604 97 L 602 100 L 599 115 L 599 127 L 612 130 L 630 139 L 638 147 L 640 147 L 652 130 L 659 125 L 660 122 L 697 104 L 703 104 L 701 99 L 684 103 L 677 108 L 670 108 L 659 118 L 653 120 L 639 138 L 636 140 L 636 137 L 644 126 L 669 105 L 675 104 L 683 99 L 694 97 L 698 95 Q 698 90 695 88 L 691 91 L 686 91 Q 684 96 678 95 L 674 99 L 669 100 L 643 117 L 641 115 L 644 113 L 646 109 L 651 108 L 677 91 L 680 91 L 686 87 L 692 86 L 690 80 L 688 80 L 684 84 L 678 84 L 674 88 L 672 87 L 662 92 L 648 103 L 645 102 Q 653 93 665 87 Q 667 88 666 85 L 673 84 L 679 80 L 681 81 L 686 78 Q 687 73 683 72 Q 677 72 675 76 L 668 78 L 663 78 L 657 83 L 653 88 L 649 89 L 653 82 L 664 73 L 666 74 L 676 71 L 677 67 L 672 63 Q 668 66 662 66 L 654 71 L 651 71 L 648 75 L 642 78 L 641 76 L 647 71 L 648 69 L 668 61 L 657 54 L 645 60 L 639 67 Q 640 69 638 68 L 636 71 Q 635 74 633 71 L 634 67 L 640 60 Q 644 54 651 53 Q 648 49 642 50 L 628 65 L 625 71 L 622 70 L 623 66 L 626 64 L 626 63 L 635 54 Q 634 51 637 52 Q 638 49 635 50 Z M 456 57 Q 455 63 458 67 L 458 86 L 459 87 L 458 92 L 458 94 L 458 100 L 460 106 L 459 108 L 461 111 L 461 116 Q 464 117 463 123 Q 467 129 469 139 L 467 140 L 461 127 L 461 124 L 458 119 L 454 98 L 455 95 L 454 92 L 455 87 L 454 83 L 455 81 L 453 63 L 451 58 Q 445 58 442 62 L 443 64 L 442 67 Q 441 75 444 79 L 444 88 L 443 88 L 441 87 L 441 82 L 438 73 L 439 63 L 437 63 L 432 66 L 433 69 L 432 78 L 432 80 L 435 98 L 432 99 L 430 87 L 428 83 L 429 79 L 428 75 Q 429 70 426 71 L 423 76 L 423 86 L 425 97 L 424 99 L 425 106 L 430 121 L 428 122 L 423 112 Q 424 106 421 105 L 421 100 L 421 98 L 420 84 L 419 82 L 413 94 L 413 107 L 417 119 L 418 127 L 424 140 L 424 143 L 433 161 L 458 196 L 462 198 L 470 209 Q 472 212 477 212 L 478 202 L 487 181 L 487 177 L 492 172 Q 493 165 498 162 L 491 146 L 485 137 L 481 126 L 481 122 L 479 119 L 479 114 L 472 90 L 473 88 L 470 72 L 470 61 L 469 58 L 467 57 L 464 59 L 465 64 L 465 85 L 468 91 L 467 93 L 470 105 L 470 111 L 473 117 L 474 129 L 477 133 L 481 146 L 489 158 Q 490 162 488 161 L 481 154 L 470 129 L 469 119 L 466 111 L 465 100 L 464 99 L 464 92 L 461 83 L 461 63 L 460 62 Q 462 55 456 57 Z M 405 102 L 399 105 L 402 119 L 405 124 L 407 135 L 417 156 L 437 186 L 450 200 L 450 202 L 445 202 L 430 184 L 415 162 L 400 129 L 399 122 L 395 110 L 389 115 L 395 138 L 397 140 L 406 163 L 404 164 L 398 155 L 389 132 L 389 127 L 386 123 Q 387 119 384 120 L 377 128 L 389 152 L 392 165 L 400 174 L 407 188 L 405 189 Q 401 186 400 181 L 390 169 L 386 160 L 386 158 L 385 153 L 375 135 Q 376 132 373 133 L 367 142 L 371 149 Q 370 151 373 150 L 373 154 L 378 164 L 379 169 L 386 177 L 380 175 L 375 170 L 373 161 L 365 147 L 359 155 L 365 169 L 373 175 Q 375 174 374 177 L 376 177 Q 382 190 392 201 Q 393 204 391 203 Q 381 195 375 183 L 368 177 L 361 171 L 357 160 L 351 164 L 353 170 L 366 187 L 371 191 L 373 194 L 389 208 L 390 208 L 393 214 L 408 226 L 409 230 L 407 229 Q 404 230 405 227 L 399 225 Q 400 222 398 223 L 394 219 L 372 199 L 362 188 Q 363 185 360 186 L 357 180 L 348 168 Q 343 169 340 174 L 344 176 Q 346 175 345 178 L 355 185 L 370 203 Q 369 205 372 204 L 373 207 L 390 223 L 407 237 Q 409 236 408 239 Q 423 254 442 265 L 465 278 L 468 278 L 469 281 L 491 293 L 493 293 L 489 286 L 483 284 L 449 264 Q 445 263 446 259 L 451 260 L 460 267 L 485 280 L 484 277 L 481 273 L 471 269 L 469 266 L 465 264 L 467 261 L 478 269 L 480 268 L 477 260 L 473 258 Q 470 257 471 253 L 476 254 L 474 246 L 474 226 L 476 221 Q 474 215 468 214 L 466 212 L 464 210 L 447 190 Q 448 187 446 188 L 427 162 L 424 152 L 420 147 L 413 130 L 410 115 L 406 111 L 407 110 Q 408 105 406 104 Q 407 101 405 102 Z M 699 111 L 679 118 L 663 128 Q 651 137 644 151 L 644 153 L 658 168 L 663 179 L 663 182 L 665 184 L 665 187 L 678 183 L 675 182 L 673 179 L 675 177 L 683 177 L 695 174 L 713 173 L 714 172 L 716 173 L 728 173 L 734 175 L 748 176 L 749 177 L 751 177 L 751 171 L 734 166 L 709 166 L 705 168 Q 698 169 699 167 L 712 162 L 715 163 L 718 162 L 735 163 L 746 167 Q 753 170 751 163 L 749 160 L 741 157 L 732 157 L 731 156 Q 726 155 725 157 L 714 157 L 713 156 Q 710 157 711 154 L 721 154 L 724 152 L 729 152 L 738 155 L 747 156 L 748 157 L 746 149 L 743 146 L 724 146 L 717 148 L 712 147 L 715 144 L 719 143 L 742 143 Q 743 137 739 135 L 734 138 L 717 138 L 716 139 Q 711 141 712 137 L 714 135 Q 719 137 721 134 Q 727 132 729 135 L 735 133 Q 737 134 736 131 L 728 124 L 714 126 L 708 129 L 706 127 L 710 124 L 719 122 Q 725 123 725 121 L 721 117 Q 708 115 702 120 L 700 117 L 702 115 L 713 115 Q 709 110 699 111 Z M 585 137 L 580 141 Q 581 143 579 142 L 575 148 Q 577 154 573 153 L 572 151 L 575 143 L 575 141 L 570 146 L 564 156 L 565 160 L 564 162 L 565 173 L 569 182 L 575 186 Q 585 185 590 187 L 590 180 L 589 179 L 591 168 L 600 155 L 609 148 L 606 143 L 605 145 L 600 147 L 597 151 L 592 154 L 592 157 L 584 171 Q 583 176 586 179 Q 587 182 584 181 L 582 180 Q 583 175 581 174 L 581 170 Q 585 167 585 161 L 599 143 L 601 140 L 596 142 L 592 142 L 586 146 L 582 153 Q 584 158 581 160 Q 582 164 578 162 L 580 150 L 582 146 L 591 139 Q 590 136 585 137 Z M 548 140 L 545 141 L 538 153 L 538 160 L 540 165 L 543 168 L 542 169 Q 543 171 541 170 L 538 168 L 536 161 L 536 151 L 539 143 L 535 144 Q 528 148 526 157 L 527 163 L 532 171 L 531 173 L 525 162 Q 526 159 523 160 L 521 166 L 522 173 L 529 187 L 533 190 L 546 197 L 564 188 Q 563 180 559 177 Q 560 170 557 168 L 558 148 L 560 145 L 560 141 L 554 141 L 548 152 L 548 165 Q 552 168 551 174 L 554 175 L 555 175 L 555 179 L 547 175 L 547 169 L 544 161 L 545 150 L 548 143 Q 550 141 548 140 Z M 616 157 L 615 158 Q 612 157 613 160 L 609 161 L 603 169 L 597 185 L 598 192 L 604 202 L 607 203 L 614 195 Q 616 196 615 193 L 628 187 L 637 185 L 644 185 L 645 184 L 644 178 L 639 177 L 629 178 L 623 180 L 607 193 L 606 191 L 609 189 L 611 186 L 622 177 L 635 174 L 641 174 L 642 175 L 638 166 Q 630 165 627 167 L 622 173 Q 623 175 621 174 L 619 174 Q 615 175 617 171 L 621 170 L 622 168 L 629 163 Q 635 164 634 162 Q 629 155 616 157 Z M 709 176 L 708 177 L 697 177 Q 693 180 687 179 L 684 181 Q 678 179 679 183 L 686 181 L 689 182 L 709 178 L 730 179 L 733 181 L 744 182 L 748 184 L 749 180 L 746 181 L 739 180 L 736 178 L 731 178 L 727 176 L 709 176 Z M 515 183 L 513 184 L 511 188 L 514 189 Q 516 188 515 193 L 518 194 L 518 197 L 522 202 Q 527 201 530 204 Q 533 203 531 207 L 527 207 L 521 203 Q 518 204 519 202 L 517 200 L 512 192 L 508 189 Q 506 185 504 189 L 508 198 L 512 202 L 512 205 L 521 210 L 519 211 L 510 207 Q 507 206 509 205 L 509 203 L 502 192 L 497 201 L 498 205 L 501 206 L 503 211 L 511 216 L 510 218 Q 506 214 501 214 L 500 210 L 496 207 L 495 212 Q 496 223 501 230 L 512 239 L 523 242 Q 530 243 533 241 L 533 233 L 532 232 L 534 224 L 534 217 L 541 202 L 539 202 L 523 191 L 517 185 Q 518 182 515 183 Z M 710 183 L 703 185 L 695 185 L 689 187 L 679 188 L 668 194 Q 667 202 670 207 L 669 210 L 669 221 L 670 222 Q 667 224 668 231 L 668 233 L 670 235 L 678 235 L 679 234 L 693 235 L 696 237 L 711 240 L 725 246 L 736 255 L 738 255 L 744 249 L 742 246 Q 739 247 740 245 L 740 243 L 744 245 L 747 245 L 747 240 Q 737 239 733 232 L 722 229 L 720 227 L 715 228 L 709 224 L 694 222 L 693 220 L 706 220 L 714 222 L 726 227 L 729 227 L 742 235 L 749 236 L 750 231 Q 744 225 734 223 L 732 220 L 736 220 L 748 225 Q 751 226 752 224 Q 753 219 751 218 L 753 210 L 748 204 L 742 204 Q 740 201 735 202 Q 730 200 734 198 L 740 200 L 742 200 L 750 202 Q 751 204 752 202 L 748 195 Q 737 181 710 183 Z M 581 192 L 576 194 L 570 202 Q 571 206 568 205 L 569 208 L 568 210 L 569 215 L 573 221 L 583 228 Q 590 229 594 225 L 599 219 L 598 216 L 600 210 Q 599 203 596 200 L 586 193 L 581 192 Z M 634 193 L 624 196 L 620 199 L 617 201 L 613 206 L 609 209 Q 605 211 606 218 Q 610 221 619 220 L 629 224 L 643 234 L 649 232 L 647 227 L 641 226 L 636 223 L 633 219 L 628 218 L 613 218 Q 610 217 613 215 L 618 216 Q 622 217 624 215 L 634 217 Q 636 216 635 219 L 638 221 L 644 223 L 646 223 L 652 228 L 654 224 Q 656 218 651 220 L 648 217 Q 644 210 633 212 Q 630 211 633 209 L 644 210 L 648 212 L 653 218 L 655 217 L 656 209 Q 655 206 651 207 L 647 203 L 639 203 L 638 201 L 648 201 L 652 205 Q 655 206 654 204 Q 649 193 634 193 Z M 556 207 L 552 209 L 546 217 L 551 218 L 553 217 L 555 219 L 554 221 L 550 220 L 547 221 Q 541 219 543 226 Q 541 227 544 228 Q 550 230 552 226 L 555 227 Q 558 226 556 230 Q 552 229 551 232 L 546 231 L 543 233 Q 543 237 547 239 L 550 238 L 552 238 L 554 238 L 555 236 L 560 236 L 561 232 L 565 233 L 561 240 L 558 239 Q 554 238 555 241 Q 550 239 548 243 L 551 245 L 555 246 L 564 244 L 567 242 L 572 235 Q 573 230 571 231 L 560 218 L 558 211 Q 560 206 556 207 Z M 606 223 L 604 224 L 599 230 L 605 234 Q 608 235 606 231 L 609 230 L 611 231 L 621 242 L 623 247 L 622 251 L 625 264 Q 623 265 626 266 Q 631 266 633 262 L 633 256 L 625 243 L 628 241 L 632 250 L 635 252 L 635 245 L 629 234 L 619 227 L 606 223 Z M 338 232 L 329 236 L 322 242 L 303 251 L 300 254 L 295 255 L 274 268 L 225 288 L 209 291 L 204 294 L 197 294 L 192 296 L 179 297 L 178 298 L 169 298 L 164 300 L 154 300 L 153 301 L 118 300 L 93 295 L 92 296 L 73 298 L 60 304 Q 54 308 51 316 L 51 318 L 52 326 L 65 337 L 80 342 L 90 342 Q 96 338 106 338 L 114 333 L 126 321 L 128 323 Q 130 322 129 326 L 117 337 Q 118 339 116 338 Q 111 340 115 342 L 116 341 L 127 341 L 128 340 L 131 341 L 132 340 L 149 340 L 150 339 L 153 340 L 174 340 L 175 341 L 198 341 L 199 340 L 201 341 L 252 341 L 274 337 L 280 337 L 282 337 L 291 335 L 327 334 L 328 333 L 358 334 L 366 336 L 397 339 L 403 341 L 405 340 L 413 342 L 430 343 L 432 343 L 452 347 L 464 347 L 480 350 L 513 352 Q 514 355 520 353 L 524 355 L 535 355 L 536 356 L 539 355 L 553 356 L 554 357 Q 561 359 559 354 Q 551 352 547 347 L 540 346 L 538 346 L 517 348 L 516 349 L 505 348 L 501 346 Q 492 347 488 344 L 481 344 L 480 343 L 478 344 L 471 342 L 464 342 L 459 340 L 451 340 L 444 338 L 431 337 L 430 336 L 421 338 L 408 335 L 398 335 L 392 333 L 387 333 L 385 332 L 387 328 L 396 331 L 414 332 L 424 334 L 435 334 L 436 333 L 440 335 L 461 336 L 467 338 L 473 338 L 477 340 L 494 341 L 497 343 L 506 343 L 507 344 L 519 344 L 520 343 L 534 343 L 534 342 L 526 334 L 484 334 L 483 333 L 481 334 L 474 332 L 460 331 L 451 328 L 442 328 L 441 329 L 437 328 Q 433 329 434 327 L 438 324 L 443 325 L 447 324 L 451 324 L 454 326 L 459 326 L 469 329 Q 479 328 487 330 L 489 330 L 507 330 L 508 331 L 511 330 L 513 331 Q 520 333 519 329 L 500 321 L 490 321 L 489 322 L 479 320 L 476 321 L 475 320 L 466 320 L 451 317 L 449 317 Q 444 318 443 316 L 429 317 L 427 314 L 431 311 L 433 312 L 445 312 L 446 313 L 448 312 L 463 316 L 474 316 L 475 317 L 477 316 L 479 317 L 488 317 L 475 310 L 467 308 L 463 305 Q 459 308 451 306 L 450 307 Q 445 305 437 306 L 436 305 L 415 305 L 401 302 L 399 302 L 399 298 L 408 298 L 416 301 L 424 301 L 425 302 L 434 302 L 435 301 L 447 302 L 448 303 Q 453 304 454 302 L 429 290 L 405 292 L 400 294 L 366 291 L 352 288 L 346 288 L 343 286 L 327 287 Q 326 284 329 285 L 330 282 L 348 275 L 352 276 Q 358 278 360 275 L 365 277 L 383 278 L 385 278 L 396 276 Q 402 278 401 274 L 393 270 L 391 270 L 386 269 L 376 271 L 375 270 L 365 270 L 364 269 L 361 270 L 353 270 L 352 268 L 354 266 L 368 265 L 369 264 L 379 266 L 384 265 L 373 258 L 368 258 L 326 275 L 324 273 L 334 267 L 337 267 L 339 265 L 342 265 L 344 263 L 350 262 L 352 260 L 355 260 L 366 255 Q 368 256 367 253 L 364 251 L 361 251 L 359 251 L 351 251 Q 349 254 344 253 L 305 275 L 298 276 L 291 280 L 287 280 L 274 284 Q 267 286 269 281 L 242 292 L 238 292 L 223 297 L 218 297 L 204 302 L 200 302 L 197 304 L 191 304 L 186 306 L 176 307 L 174 307 Q 169 308 168 306 Q 170 301 172 304 L 182 304 L 194 300 L 199 300 L 205 297 L 207 297 L 215 294 L 225 293 L 228 291 L 232 291 L 245 287 L 259 282 L 273 274 L 279 273 L 285 270 L 286 273 L 275 277 L 272 280 L 276 281 L 301 272 L 305 269 L 318 264 L 322 260 L 330 257 L 345 248 L 356 247 L 349 241 L 338 243 L 320 255 L 315 256 L 310 261 L 299 264 L 297 266 Q 292 268 293 264 L 299 260 L 307 258 L 324 246 L 341 237 Q 343 238 342 236 L 338 232 Z M 584 234 Q 581 235 582 241 L 577 248 L 565 257 Q 561 256 562 259 L 565 261 Q 569 260 571 262 Q 573 259 579 260 L 583 257 L 586 244 L 588 242 L 590 243 L 589 251 L 586 254 L 585 261 Q 580 260 579 264 L 577 263 L 572 266 L 577 268 L 584 268 L 590 263 L 593 256 Q 592 251 594 250 Q 593 246 597 248 L 596 257 L 591 266 L 593 268 L 600 265 L 605 259 Q 606 254 604 253 L 606 250 L 600 239 L 596 235 L 585 235 L 584 234 Z M 608 234 L 606 236 L 614 248 Q 612 254 615 256 L 615 264 L 614 265 L 614 268 L 619 268 L 620 266 L 620 252 L 617 242 L 610 234 L 608 234 Z M 497 237 Q 494 238 495 242 L 503 245 L 504 248 Q 500 249 498 246 L 494 247 L 503 252 Q 509 252 513 255 L 518 255 L 526 252 L 528 253 Q 530 252 529 255 L 527 257 L 521 257 L 515 259 L 509 256 L 503 255 L 501 255 L 494 251 Q 493 258 496 262 L 499 263 Q 505 265 507 262 Q 514 261 517 265 L 517 266 L 497 266 Q 496 271 500 273 L 512 272 L 514 272 Q 519 271 520 274 L 519 275 Q 512 273 511 276 Q 504 278 503 275 Q 499 274 500 277 L 503 278 L 504 281 L 507 280 L 511 281 L 522 279 Q 524 278 523 281 L 510 284 L 514 286 L 519 287 L 527 287 L 528 286 L 530 287 L 533 286 Q 534 282 536 285 L 548 278 L 552 271 L 552 267 L 543 258 L 535 246 Q 531 250 522 248 L 520 248 L 510 245 L 497 237 Z M 682 240 L 681 241 L 666 241 L 644 274 L 642 275 L 649 280 Q 651 279 650 282 L 653 283 L 667 300 Q 666 302 669 301 L 672 308 L 672 312 L 675 318 L 677 328 L 679 329 L 691 328 L 692 327 L 688 321 L 688 318 L 682 310 Q 680 305 684 306 Q 688 309 689 316 L 692 319 L 691 320 L 692 323 L 696 326 L 698 326 Q 702 326 704 323 L 704 320 Q 699 317 697 311 L 693 308 L 689 299 L 686 297 L 680 290 L 677 283 L 669 277 L 671 274 L 676 277 L 691 297 L 695 305 L 709 320 L 715 317 L 712 303 L 700 293 L 689 281 Q 685 279 689 277 L 693 283 Q 700 291 710 296 L 715 302 L 717 312 L 719 313 L 726 303 L 723 298 Q 720 292 714 290 L 712 288 L 704 280 L 701 276 L 706 277 L 709 282 L 727 297 Q 726 299 729 298 L 731 291 L 726 281 L 711 271 L 714 269 L 728 277 L 730 281 Q 729 283 732 282 L 732 274 L 731 272 Q 728 273 729 271 Q 727 265 721 264 Q 716 262 720 260 L 727 265 Q 729 264 728 267 L 730 267 L 730 265 L 726 259 L 719 251 L 705 244 L 697 243 L 694 241 L 682 240 Z M 765 256 L 760 264 L 760 266 L 777 273 L 792 277 L 796 280 L 801 280 L 805 283 L 809 283 L 812 285 L 816 285 L 830 289 L 842 295 L 862 301 L 868 305 L 867 307 L 842 299 L 832 294 L 805 287 L 790 281 L 786 281 L 784 279 L 781 279 L 775 276 L 771 276 L 766 273 L 762 273 L 759 271 L 757 273 L 756 279 L 763 283 L 767 283 L 777 288 L 796 290 L 800 292 L 809 293 L 819 297 L 823 297 L 830 300 L 837 300 L 838 302 L 837 304 L 828 303 L 822 300 L 816 300 L 808 298 L 801 295 L 771 291 L 755 283 L 750 290 L 759 294 L 768 296 L 775 300 L 778 300 L 780 302 Q 785 301 787 303 Q 793 301 791 306 L 789 307 L 783 305 L 778 305 L 776 303 L 767 301 L 765 299 L 754 296 L 752 294 L 749 294 L 743 304 L 743 306 L 756 307 L 770 311 L 772 313 L 776 313 L 781 316 L 790 317 L 794 319 L 811 321 L 814 323 L 827 324 L 828 328 Q 823 326 814 327 L 804 323 L 786 321 L 784 319 L 775 318 L 773 316 Q 764 315 759 311 L 742 309 Q 737 312 737 318 L 748 319 L 770 328 Q 779 327 785 330 L 787 329 L 800 332 L 801 331 L 814 331 L 813 335 L 811 334 L 803 334 L 802 335 Q 794 336 791 333 L 781 333 L 776 331 L 766 331 Q 764 328 759 329 L 748 323 L 734 320 L 732 323 L 728 328 L 731 327 Q 736 326 738 329 L 745 329 L 759 333 L 766 333 L 766 337 L 758 337 L 756 335 L 748 335 L 738 333 L 735 331 L 721 333 L 717 336 L 716 338 L 719 337 L 729 339 L 731 338 L 747 341 L 749 341 L 757 341 L 758 340 L 768 342 L 771 341 Q 776 340 778 342 L 783 341 L 785 342 Q 789 343 791 341 Q 798 345 812 343 L 819 345 L 821 348 L 820 350 L 808 347 L 784 346 L 783 345 L 770 346 L 768 346 Q 763 347 762 345 L 745 345 L 737 343 L 734 344 L 725 342 L 715 342 L 714 341 Q 704 341 701 348 L 709 349 L 737 349 L 738 350 L 741 349 L 743 350 L 745 349 L 746 350 L 758 350 L 759 351 L 761 350 L 780 351 L 781 352 L 800 352 L 814 355 Q 821 356 825 353 L 829 355 L 837 355 L 857 359 L 868 359 L 869 358 L 880 360 L 883 359 L 893 361 L 908 361 L 913 363 Q 919 365 921 362 L 926 363 L 936 363 L 937 362 L 952 363 L 955 362 L 963 362 L 964 363 L 977 362 L 978 361 L 1004 361 L 1005 360 L 1013 360 L 1013 358 L 999 354 L 994 354 L 975 346 L 966 344 L 957 339 L 949 337 L 941 331 L 919 320 L 912 318 L 906 314 L 885 306 L 878 305 L 865 299 L 861 299 L 841 290 L 807 280 Q 803 276 796 275 L 779 264 L 775 263 L 765 256 Z M 558 272 L 552 285 L 546 290 L 543 294 L 538 298 L 527 301 L 532 311 L 535 310 L 536 307 L 540 306 Q 542 307 541 305 Q 542 302 546 303 L 558 289 L 561 281 L 564 283 Q 563 290 558 293 Q 559 295 557 294 L 552 300 L 549 302 L 547 305 L 539 310 Q 535 309 536 312 L 533 313 Q 533 318 537 320 Q 539 321 538 319 L 550 308 L 554 308 L 559 301 L 563 297 L 564 299 L 561 305 L 558 307 L 554 313 L 552 312 L 543 318 Q 544 320 542 319 L 539 323 Q 542 328 549 327 L 550 324 L 557 319 L 558 317 L 563 313 Q 561 308 565 309 Q 566 307 567 310 L 564 315 Q 565 318 562 317 L 558 323 L 552 329 L 554 330 Q 558 331 560 328 L 564 329 L 572 319 L 572 316 L 575 318 L 567 330 L 575 329 L 578 327 L 585 318 L 589 303 L 591 301 L 592 287 L 591 285 L 584 285 L 571 281 L 558 272 Z M 404 278 L 399 280 L 382 281 L 381 282 L 368 281 L 367 280 Q 362 279 361 281 L 359 280 L 343 280 L 338 282 Q 335 281 336 284 L 351 284 L 353 286 L 371 287 L 372 288 L 385 288 L 391 290 L 399 290 L 413 287 Q 419 288 419 286 L 408 278 L 404 278 Z M 635 279 L 630 283 Q 624 282 622 285 L 598 287 L 598 298 L 594 312 L 588 327 L 580 336 L 584 338 L 586 341 L 590 340 L 592 334 L 595 332 L 604 314 L 607 299 L 606 290 L 609 288 L 611 300 L 611 302 L 602 327 L 594 338 L 591 344 L 591 347 Q 592 350 597 349 L 606 335 L 607 329 L 610 325 Q 611 316 614 312 L 617 314 L 611 329 L 610 335 L 602 345 L 599 352 L 605 355 L 610 355 L 612 351 Q 611 347 614 348 L 619 337 L 619 333 L 623 323 L 626 324 L 624 327 L 620 344 L 614 353 Q 613 356 616 357 L 627 356 L 626 353 L 628 349 L 631 347 L 633 345 L 634 340 L 634 325 L 636 323 L 637 325 L 637 338 L 638 339 Q 636 348 630 353 L 630 355 Q 639 356 644 352 L 647 344 L 646 332 L 644 327 L 647 325 L 650 335 L 650 346 L 649 347 L 651 349 L 655 343 L 658 342 L 656 339 L 656 330 L 655 329 Q 654 325 657 324 L 659 325 L 660 330 L 659 333 L 660 338 Q 665 333 666 325 Q 667 320 665 319 L 666 315 L 664 308 L 652 292 L 642 282 L 635 279 Z "/><path fill="#000000"  stroke="none" opacity="1" d="M 526.5 62 Q 529.8 60.9 529 63.5 L 530 65.5 L 527 75.5 L 528 79.5 L 527 82.5 L 529 92.5 L 528 96.5 Q 530.2 97.7 529 102.5 Q 527.5 105.5 526 102.5 L 524 91.5 L 524 69.5 Q 526.3 68.2 525 63.5 L 526.5 62 Z "/><path fill="#000000"  stroke="none" opacity="1" d="M 444.5 93 L 447 94.5 Q 446.3 101.2 449 104.5 L 448 107.5 L 453 128 L 450 126.5 L 446 118.5 L 443 94.5 L 444.5 93 Z "/><path fill="#000000"  stroke="none" opacity="1" d="M 411.5 170 L 426 191.5 Q 424.8 194.2 423.5 192 L 420 189.5 L 411 178.5 L 409 172.5 L 411.5 170 Z "/><path fill="#000000"  stroke="none" opacity="1" d="M 588.5 198 L 593 200.5 L 596 211.5 L 590.5 221 L 584.5 223 L 578.5 223 Q 571.6 218.4 571 207.5 L 572 204 Q 576.6 202.8 578 205.5 L 581.5 214 L 585.5 215 L 589 212.5 L 590 207.5 L 586 199 L 588.5 198 Z "/><path fill="#000000"  stroke="none" opacity="1" d="M 635.5 201 L 636.5 203 L 630.5 204 L 629.5 202 Q 634.3 203.2 635.5 201 Z "/><path fill="#000000"  stroke="none" opacity="1" d="M 727.5 206 L 734.5 207 L 750 216.5 Q 750.8 218.8 748.5 218 L 746.5 219 L 732.5 210 Q 727.3 211.3 726 208.5 L 727.5 206 Z "/><path fill="#000000"  stroke="none" opacity="1" d="M 706.5 212 L 721 216 L 719.5 220 L 717.5 218 L 707.5 215 L 704 216 Q 702.5 212.3 705.5 213 L 706.5 212 Z "/><path fill="#000000"  stroke="none" opacity="1" d="M 683.5 224 L 692.5 225 L 707 230.5 Q 707.8 232.8 705.5 232 L 703.5 232 L 691.5 228 L 678.5 228 L 673.5 229 L 672 225.5 L 673.5 226 L 683.5 224 Z "/><path fill="#000000"  stroke="none" opacity="1" d="M 715.5 234 L 723.5 234 L 736 241.5 Q 736.8 244.1 733.5 243 L 721.5 237 L 716.5 236 L 715.5 234 Z "/><path fill="#000000"  stroke="none" opacity="1" d="M 651 272 L 653.5 272 Q 656.9 276.6 663.5 278 L 671 285.5 L 676 292.5 L 676 294.5 L 680 298.5 L 680 302 L 675 298.5 L 667 285 L 651 275.5 L 651 272 Z "/><path fill="#000000"  stroke="none" opacity="1" d="M 315.5 277 L 317 280.5 L 315.5 280 L 313.5 280 L 308.5 284 L 297.5 285 L 297.5 284 Q 301.5 281 308.5 281 L 315.5 277 Z "/><path fill="#000000"  stroke="none" opacity="1" d="M 318.5 287 Q 323 286 324 288.5 L 320.5 291 L 318.5 290 Q 316.8 293.8 309.5 292 L 308 289 Q 314.6 289.9 318.5 287 Z "/><path fill="#000000"  stroke="none" opacity="1" d="M 323.5 294 L 329.5 295 L 330.5 294 L 339.5 294 L 340.5 295 L 357.5 296 L 363.5 298 L 364.5 297 L 373.5 297 Q 375.3 299.7 381.5 298 L 388 297 L 386.5 301 L 380.5 302 L 379.5 301 Q 369.2 302.3 362.5 300 L 360.5 301 L 359.5 300 L 349.5 300 L 348.5 299 L 335 299 L 334.5 297 L 325.5 297 L 322.5 298 Q 319 296 323.5 294 Z "/><path fill="#000000"  stroke="none" opacity="1" d="M 80.5 303 L 97.5 303 L 101 305.5 L 99.5 308 L 80.5 307 L 76.5 308 L 68 314.5 L 66 317.5 L 69 322.5 L 69 326.5 L 71.5 329 L 87.5 332 L 91.5 331 L 93 333.5 L 88.5 337 L 77.5 335 L 73.5 333 L 68.5 333 L 66 330.5 L 61 318.5 Q 62.8 311.3 68.5 308 L 80.5 303 Z "/><path fill="#000000"  stroke="none" opacity="1" d="M 802.5 303 L 804.5 305 L 819.5 308 L 821 309.5 L 819.5 312 L 815.5 313 L 804.5 309 L 799.5 309 L 798 307.5 Q 796.9 304.2 799.5 305 L 802.5 303 Z "/><path fill="#000000"  stroke="none" opacity="1" d="M 317.5 304 L 325.5 305 L 328.5 304 L 330.5 305 L 333.5 304 L 344.5 306 L 363.5 306 L 364.5 307 L 383.5 308 L 384.5 309 L 399.5 309 L 412 312 Q 413.8 316.5 408.5 315 L 399.5 313 L 378.5 312 L 370.5 310 L 350.5 310 L 349.5 309 L 326.5 308 L 325.5 309 L 314.5 309 L 309.5 308 L 299 310 Q 297.3 305.9 301.5 307 L 307.5 305 L 316.5 305 L 317.5 304 Z "/><path fill="#000000"  stroke="none" opacity="1" d="M 109.5 305 L 110.5 306 L 129.5 306 L 132.5 308 L 134.5 307 L 137.5 308 L 140.5 307 L 143.5 308 L 145.5 308 L 158 306 Q 159.8 311.2 152.5 309 L 151.5 310 L 141.5 310 L 140.5 311 L 129.5 311 L 128.5 310 L 108.5 310 L 107 308.5 L 109.5 305 Z "/><path fill="#000000"  stroke="none" opacity="1" d="M 324.5 312 L 350.5 312 L 354 314.5 L 352.5 317 L 347.5 315 L 346.5 316 L 330.5 316 L 329.5 317 Q 328 314.5 322.5 316 L 320.5 317 Q 319.3 314.8 314.5 316 L 291.5 320 L 289.5 319 L 288.5 320 L 271.5 321 L 269.5 322 Q 266.3 320.8 267 317 L 277.5 318 L 281.5 316 L 288.5 315 L 293.5 316 L 308.5 313 L 310.5 313 L 323.5 313 L 324.5 312 Z "/><path fill="#000000"  stroke="none" opacity="1" d="M 372.5 318 L 386.5 319 L 387.5 320 L 399.5 320 L 401.5 322 Q 410.4 320.6 415.5 323 L 420.5 322 L 424 323 L 422.5 326 Q 417 327.5 415.5 325 L 414.5 326 L 405.5 326 L 404.5 325 L 397.5 325 L 387.5 323 L 385.5 323 Q 379.4 323.6 376.5 321 L 373.5 322 L 371 321 L 372.5 318 Z "/><path fill="#000000"  stroke="none" opacity="1" d="M 315.5 322 L 324.5 323 Q 326 320.5 331.5 322 L 333.5 323 Q 335.3 320.3 341.5 322 Q 350.6 325.9 365.5 324 L 374 327 L 373.5 331 L 370.5 329 L 358.5 327 L 353.5 328 L 349.5 326 L 345.5 327 L 344.5 326 Q 337 327.5 333.5 325 L 331.5 325 L 329.5 326 L 317.5 326 L 315.5 325 L 304.5 329 L 303 325.5 L 304.5 324 Q 311.9 324.9 315.5 322 Z "/><path fill="#000000"  stroke="none" opacity="1" d="M 277.5 326 L 286.5 326 L 288 327.5 L 284.5 330 Q 277.5 329 274.5 332 L 254.5 333 L 253.5 334 L 248.5 333 L 247.5 334 L 236.5 334 L 235.5 333 L 218.5 333 L 217 331.5 L 218.5 328 L 224.5 329 L 228.5 328 L 229.5 329 L 252.5 329 L 255.5 328 L 256.5 329 L 266.5 329 L 277.5 326 Z "/><path fill="#000000"  stroke="none" opacity="1" d="M 138.5 330 Q 144 328.5 145.5 331 L 148.5 330 L 158.5 332 L 161.5 331 L 162.5 332 L 173.5 332 L 176.5 331 L 178.5 332 L 182.5 331 L 183.5 332 L 194.5 332 L 196.5 331 Q 198.3 333.7 204.5 332 L 206 333.5 L 204.5 336 L 185.5 337 L 184.5 336 L 161.5 336 L 157.5 335 Q 156.2 337.3 151.5 336 L 150.5 335 L 132.5 335 L 130 332.5 L 131.5 331 Q 137 332.5 138.5 330 Z "/><path fill="#000000"  stroke="none" opacity="1" d="M 824.5 334 L 831.5 335 L 836.5 334 L 838.5 335 Q 839.8 332.8 844.5 334 L 850.5 337 L 869.5 340 L 874 344.5 L 870.5 345 L 861.5 342 L 848.5 340 L 844.5 338 L 823.5 338 L 822 336.5 L 824.5 334 Z "/><path fill="#000000"  stroke="none" opacity="1" d="M 832.5 345 L 838.5 345 L 848.5 348 L 852.5 347 L 860.5 349 L 874.5 350 L 876.5 349 L 877.5 350 L 888.5 350 L 889.5 351 L 901.5 351 L 903 352.5 Q 903.9 355.9 898.5 354 L 897.5 355 L 888.5 355 L 884.5 354 L 882.5 355 L 881.5 354 L 874.5 354 L 864.5 352 L 862.5 353 L 855.5 351 L 844.5 351 L 838.5 349 Q 836.8 351.8 830.5 350 L 829 346 L 832.5 345 Z "/><path fill="#000000"  stroke="none" opacity="1" d="M 913.5 350 L 921.5 351 L 923.5 350 L 934.5 353 L 939.5 352 L 943.5 353 L 944.5 352 L 968.5 352 L 970.5 353 Q 972.2 350.3 978.5 352 L 988 354 L 986.5 357 L 976.5 356 L 973.5 357 L 972.5 356 Q 960.4 357.6 952.5 355 L 951.5 356 L 939.5 357 Q 938.3 354.8 933.5 356 L 929.5 357 Q 926.6 352.9 918.5 354 Q 917.3 356.3 912.5 355 L 911 351 L 913.5 350 Z "/></svg>